# xmcd
#
# Track frame offsets:
#	150
#	16250
#	38356
#	52455
#	69260
#	86476
#	102480
#	117660
#	132781
#	156613
#	178396
#	193818
#	217846
#	229464
#	246346
#	270749
#	293281
#	328205
#
# Disc length: 4678 seconds
#
# Revision: 0
# Processed by: cddbd v1.5.1PL0 Copyright (c) Steve Scherf et al.
# Submitted via: dBpowerAMP V4.0
#
DISCID=13124412
DTITLE=the funk'doctorz - i know you got soul
DYEAR=2005
DGENRE=Soul
TTITLE0=al wilson - my song
TTITLE1=randy brown - use it
TTITLE2=consummer rapport - go on with your bad self
TTITLE3=facts of life - uphill peace of mind
TTITLE4=angelo bond - what's bad about feeling you
TTITLE5=jae mason - cloud of sushine
TTITLE6=jackie moore - if
TTITLE7=billion dollar band - get into the groove
TTITLE8=the supremes - high energy
TTITLE9=tony sylvester and the main ingredient - very white
TTITLE10=david ruffin - no matter where you lye
TTITLE11=margie joseph - why'd you lye
TTITLE12=west wing - i wanna thank you
TTITLE13=eddie floyd - the highway man
TTITLE14=charles mann - do it again
TTITLE15=david porter - didn't know love was good
TTITLE16=tykarim é georges griffin - keep on doin' watcha doin'
TTITLE17=bobby wilson - deeper deeper
EXTD=
EXTT0=
EXTT1=
EXTT2=
EXTT3=
EXTT4=
EXTT5=
EXTT6=
EXTT7=
EXTT8=
EXTT9=
EXTT10=
EXTT11=
EXTT12=
EXTT13=
EXTT14=
EXTT15=
EXTT16=
EXTT17=
PLAYORDER=
